<?xml version="1.0" standalone="no"?>
<!DOCTYPE svg PUBLIC "-//W3C//DTD SVG 20010904//EN"
 "http://www.w3.org/TR/2001/REC-SVG-20010904/DTD/svg10.dtd">
<svg version="1.0" xmlns="http://www.w3.org/2000/svg"
 width="100.000000pt" height="100.000000pt" viewBox="0 0 100.000000 100.000000"
 preserveAspectRatio="xMidYMid meet">

<g transform="translate(0.000000,100.000000) scale(0.100000,-0.100000)"
fill="currentColor" stroke="none">
<path d="M301 983 c-51 -27 -72 -62 -80 -134 -5 -40 -49 -186 -117 -386 -85
-251 -107 -326 -98 -339 5 -10 28 -24 49 -31 22 -7 56 -29 75 -48 l36 -35 43
178 c24 97 49 183 57 191 30 32 25 -25 -15 -191 -23 -94 -40 -172 -39 -174 2
-1 38 3 80 9 62 9 90 8 147 -4 39 -9 71 -13 71 -10 0 3 -18 83 -42 177 -24
100 -39 178 -34 189 14 37 33 -8 71 -165 20 -85 39 -163 42 -174 4 -16 8 -15
37 13 17 17 53 38 78 47 26 8 50 23 53 33 3 9 -45 165 -105 346 -67 201 -110
345 -110 370 0 111 -108 186 -199 138z m108 -37 c41 -22 51 -55 51 -175 0 -94
-3 -114 -23 -152 -13 -24 -36 -51 -50 -59 -24 -13 -30 -13 -54 0 -14 8 -37 35
-50 59 -20 39 -23 58 -23 155 1 119 10 149 51 172 31 17 64 17 98 0z"/>
<path d="M585 987 c-38 -18 -59 -42 -51 -62 4 -12 11 -11 42 10 42 28 73 31
113 11 41 -22 51 -55 51 -175 0 -94 -3 -114 -23 -152 -19 -35 -53 -66 -84 -75
-2 0 17 -59 41 -130 32 -93 43 -116 39 -83 -5 47 6 69 25 46 5 -6 24 -73 41
-147 18 -74 37 -152 42 -174 l10 -39 33 32 c17 17 53 38 78 47 26 8 50 23 53
33 3 9 -45 165 -105 346 -67 201 -110 345 -110 370 0 48 -26 102 -61 128 -34
24 -96 31 -134 14z"/>
<path d="M737 95 c-9 -14 -35 -30 -57 -36 -46 -14 -80 -44 -39 -35 13 3 52 0
87 -7 34 -8 62 -12 62 -10 0 13 -24 99 -29 105 -3 3 -14 -4 -24 -17z"/>
</g>
</svg>
