<?xml version="1.0" standalone="no"?>
<!DOCTYPE svg PUBLIC "-//W3C//DTD SVG 20010904//EN"
 "http://www.w3.org/TR/2001/REC-SVG-20010904/DTD/svg10.dtd">
<svg version="1.0" xmlns="http://www.w3.org/2000/svg"
 width="100.000000pt" height="100.000000pt" viewBox="0 0 100.000000 100.000000"
 preserveAspectRatio="xMidYMid meet">

<g transform="translate(0.000000,100.000000) scale(0.100000,-0.100000)"
fill="currentColor" stroke="none">
<path d="M445 915 c-50 -49 -15 -135 55 -135 22 0 41 10 65 35 19 19 35 39 35
45 0 6 -16 26 -35 45 -42 43 -84 47 -120 10z"/>
<path d="M252 908 c-16 -16 -16 -80 0 -96 7 -7 33 -12 58 -12 36 0 52 5 68 23
28 30 28 48 -1 75 -26 25 -104 31 -125 10z"/>
<path d="M425 741 c-93 -42 -105 -81 -105 -326 l0 -195 180 0 180 0 0 198 c0
248 -13 285 -113 327 -48 20 -93 19 -142 -4z"/>
<path d="M320 120 l0 -60 180 0 180 0 0 60 0 60 -180 0 -180 0 0 -60z"/>
</g>
</svg>
