<?xml version="1.0" standalone="no"?>
<!DOCTYPE svg PUBLIC "-//W3C//DTD SVG 20010904//EN"
 "http://www.w3.org/TR/2001/REC-SVG-20010904/DTD/svg10.dtd">
<svg version="1.0" xmlns="http://www.w3.org/2000/svg"
 width="100.000000pt" height="100.000000pt" viewBox="0 0 100.000000 100.000000"
 preserveAspectRatio="xMidYMid meet">

<g transform="translate(0.000000,100.000000) scale(0.100000,-0.100000)"
fill="currentColor" stroke="none">
<path d="M523 902 c-251 -90 -272 -432 -35 -549 74 -36 182 -39 253 -6 60 27
125 92 152 152 30 64 30 178 1 242 -65 140 -229 212 -371 161z m67 -105 c0 -8
-3 -17 -7 -20 -9 -9 -34 13 -27 24 8 14 34 11 34 -4z m93 6 c9 -9 -13 -34 -24
-27 -14 8 -11 34 4 34 8 0 17 -3 20 -7z m-175 -56 c2 -10 -3 -17 -12 -17 -18
0 -29 16 -21 31 9 14 29 6 33 -14z m257 2 c0 -7 -8 -15 -17 -17 -18 -3 -25 18
-11 32 10 10 28 1 28 -15z m-301 -90 c-8 -14 -34 -11 -34 4 0 8 3 17 7 20 9 9
34 -13 27 -24z m344 8 c2 -12 -11 -20 -55 -32 -63 -17 -88 -28 -115 -47 -35
-25 -75 25 -47 58 9 11 23 14 43 10 18 -3 56 2 91 13 68 21 79 21 83 -2z m2
-90 c0 -8 -3 -17 -7 -20 -9 -9 -34 13 -27 24 8 14 34 11 34 -4z m-45 -87 c0
-22 -29 -18 -33 3 -3 14 1 18 15 15 10 -2 18 -10 18 -18z m-81 -51 c-8 -14
-34 -11 -34 4 0 8 3 17 7 20 9 9 34 -13 27 -24z"/>
<path d="M261 457 c-20 -35 -30 -64 -26 -76 7 -23 139 -151 155 -151 7 0 37
14 68 32 l55 31 -45 23 c-56 29 -123 96 -152 152 l-23 45 -32 -56z"/>
<path d="M186 298 c-34 -46 -33 -63 8 -104 41 -41 62 -42 104 -6 l33 27 -59
58 -60 59 -26 -34z"/>
<path d="M111 176 l-21 -22 33 -32 33 -32 20 22 20 23 -33 31 -32 31 -20 -21z"/>
</g>
</svg>
