<?xml version="1.0" standalone="no"?>
<!DOCTYPE svg PUBLIC "-//W3C//DTD SVG 20010904//EN"
 "http://www.w3.org/TR/2001/REC-SVG-20010904/DTD/svg10.dtd">
<svg version="1.0" xmlns="http://www.w3.org/2000/svg"
 width="100.000000pt" height="100.000000pt" viewBox="0 0 100.000000 100.000000"
 preserveAspectRatio="xMidYMid meet">

<g transform="translate(0.000000,100.000000) scale(0.100000,-0.100000)"
fill="currentColor" stroke="none">
<path d="M844 901 c-35 -16 -93 -76 -83 -85 2 -2 27 -15 56 -30 l52 -26 45 73
c25 41 46 77 46 80 0 14 -77 6 -116 -12z"/>
<path d="M665 670 c-38 -60 -73 -110 -77 -110 -3 0 -9 13 -13 30 -4 16 -11 32
-16 35 -9 6 -208 -49 -242 -67 -29 -15 -40 -56 -23 -88 13 -28 13 -28 -116
-156 -71 -71 -131 -139 -135 -152 -7 -27 21 -62 50 -62 11 0 59 38 111 88 l91
88 125 38 c147 45 187 64 229 109 29 30 191 284 191 298 0 5 -92 59 -101 59
-2 0 -35 -50 -74 -110z m-120 -110 c3 -11 4 -24 1 -28 -6 -10 -124 -47 -130
-41 -3 2 -7 16 -11 30 -6 24 -3 27 47 42 72 21 86 20 93 -3z m-181 -46 c16
-41 -8 -61 -34 -29 -10 12 -10 18 0 30 16 19 26 19 34 -1z"/>
<path d="M125 515 c-33 -32 -33 -78 0 -110 51 -52 135 -11 135 66 0 31 -44 69
-80 69 -19 0 -40 -9 -55 -25z"/>
</g>
</svg>
